<svg xmlns="http://www.w3.org/2000/svg" width="512" height="512" viewBox="0 0 512 512" fill="none">
  <path d="M128 128h256v256H128V128z" fill="#f0f4f9"/>
  <path d="M352 160H160c-8.837 0-16 7.163-16 16v160c0 8.837 7.163 16 16 16h192c8.837 0 16-7.163 16-16V176c0-8.837-7.163-16-16-16z" fill="#fff"/>
  <path d="M320 224h-128a8 8 0 0 1 0-16h128a8 8 0 0 1 0 16zM320 256h-128a8 8 0 0 1 0-16h128a8 8 0 0 1 0 16zM320 288h-128a8 8 0 0 1 0-16h128a8 8 0 0 1 0 16zM256 320h-64a8 8 0 0 1 0-16h64a8 8 0 0 1 0 16z" fill="#dfe6ef"/>
  <path d="M440 96h-88V76c0-24.3-19.7-44-44-44H204c-24.3 0-44 19.7-44 44v20H72c-17.673 0-32 14.327-32 32v288c0 17.673 14.327 32 32 32h368c17.673 0 32-14.327 32-32V128c0-17.673-14.327-32-32-32zm-248-20c0-6.6 5.4-12 12-12h104c6.6 0 12 5.4 12 12v20H192V76zm248 340c0 4.4-3.6 8-8 8H80c-4.4 0-8-3.6-8-8V136c0-4.4 3.6-8 8-8h352c4.4 0 8 3.6 8 8v280z" fill="#0d6efd"/>
  <path d="M272 140c0 8.837-7.163 16-16 16s-16-7.163-16-16 7.163-16 16-16 16 7.163 16 16z" fill="#0d6efd"/>
</svg>
